<?xml version="1.0" standalone="no"?><!DOCTYPE svg PUBLIC "-//W3C//DTD SVG 1.1//EN" "http://www.w3.org/Graphics/SVG/1.1/DTD/svg11.dtd"><svg t="1716864560824" class="icon" viewBox="0 0 1024 1024" version="1.1" xmlns="http://www.w3.org/2000/svg" p-id="1847" width="32" height="32" xmlns:xlink="http://www.w3.org/1999/xlink"><path d="M676.212364 589.358545c-12.055273-5.026909-27.089455-7.540364-42.635636-7.540364-9.541818 0-27.601455 5.538909-39.144727 11.543273-21.550545 11.543273-34.629818 30.114909-34.629818 49.664 0 10.519273 4.514909 22.062545 11.031273 30.114909 8.517818 9.541818 22.062545 14.522182 40.122182 14.522182 21.550545 0 44.125091-9.541818 62.184727-25.6 16.570182-15.546182 25.088-35.607273 25.088-60.695273L698.228364 284.346182 406.807273 355.095273l0 304.965818c-10.053818-4.514909-24.064-7.028364-39.610182-7.028364-9.541818 0-19.549091 2.001455-30.580364 6.516364-27.601455 11.031273-44.637091 31.604364-44.637091 54.178909 0 10.519273 4.514909 22.062545 11.031273 30.114909 8.517818 9.541818 22.574545 14.522182 40.634182 14.522182 29.602909 0 66.234182-21.550545 77.730909-46.638545 4.002909-9.029818 7.540364-26.577455 7.540364-39.144727L428.916364 428.311273l247.296-61.719273L676.212364 589.358545z" p-id="1848" fill="#707070"></path><path d="M1024 512c0-282.763636-229.236364-512-512-512S0 229.236364 0 512c0 282.763636 229.236364 512 512 512S1024 794.763636 1024 512zM46.545455 512C46.545455 254.929455 254.929455 46.545455 512 46.545455c257.070545 0 465.454545 208.384 465.454545 465.454545s-208.384 465.454545-465.454545 465.454545C254.929455 977.454545 46.545455 769.070545 46.545455 512z" p-id="1849" fill="#707070"></path></svg>